<?xml version="1.0" standalone="no"?>
<!DOCTYPE svg PUBLIC "-//W3C//DTD SVG 20010904//EN"
 "http://www.w3.org/TR/2001/REC-SVG-20010904/DTD/svg10.dtd">
<svg version="1.0" xmlns="http://www.w3.org/2000/svg"
 width="512.000000pt" height="512.000000pt" viewBox="0 0 512.000000 512.000000"
 preserveAspectRatio="xMidYMid meet">
<metadata>
Created by potrace 1.14, written by Peter Selinger 2001-2017
</metadata>
<g transform="translate(0.000000,512.000000) scale(0.100000,-0.100000)"
fill="#000000" stroke="none">
<path d="M2515 4351 c-38 -10 -68 -26 -85 -47 -12 -14 -12 -18 1 -28 35 -25
42 -58 46 -243 4 -160 3 -190 -13 -234 l-19 -51 28 -20 c33 -24 34 -35 3 -59
-13 -10 -44 -49 -70 -86 l-46 -68 -10 -140 c-8 -99 -7 -189 1 -305 9 -134 5
-539 -7 -582 -1 -5 -2 -14 -3 -22 0 -8 -7 -21 -14 -28 -32 -32 -38 -60 -36
-176 1 -64 6 -155 10 -202 5 -47 18 -179 29 -295 11 -115 27 -241 36 -280 13
-59 13 -84 3 -157 -7 -50 -10 -132 -6 -190 4 -90 13 -130 72 -318 76 -246 78
-269 30 -419 -15 -47 -28 -105 -29 -130 -1 -43 1 -46 27 -49 35 -4 77 22 77
48 0 10 5 30 11 44 9 18 9 44 0 102 -10 70 -9 82 11 142 21 63 21 67 8 281
-13 223 -15 306 -9 426 2 39 0 90 -4 115 -9 53 3 47 14 -7 6 -27 7 -17 3 32
-12 166 -19 405 -19 600 1 196 2 213 23 252 12 23 26 44 31 47 21 14 28 -755
12 -1339 -6 -203 -13 -387 -17 -407 -4 -23 2 -70 15 -126 12 -49 21 -121 21
-160 0 -99 2 -102 69 -102 31 0 62 5 69 12 23 23 13 76 -22 128 -19 27 -46 81
-62 120 -27 70 -27 73 -15 147 7 42 39 157 71 257 96 294 105 354 76 506 -11
55 -12 87 -5 120 6 25 21 104 34 175 13 72 36 175 50 230 65 240 77 320 72
465 -4 110 -10 151 -32 220 -22 68 -28 110 -31 210 -10 263 -9 274 8 300 9 14
19 47 23 73 3 26 13 63 21 82 8 19 14 47 14 62 0 22 9 10 39 -52 37 -75 39
-81 23 -100 -16 -19 -16 -19 2 -3 18 16 20 15 47 -25 16 -23 29 -45 29 -49 0
-4 -19 -26 -42 -49 l-43 -41 41 31 c23 17 44 31 47 31 2 0 7 -17 10 -37 9 -51
72 -181 146 -297 75 -117 101 -181 101 -247 0 -42 9 -67 46 -135 25 -46 50
-84 55 -84 18 0 20 26 4 70 -16 46 -14 56 9 47 29 -11 67 -76 75 -127 5 -28
14 -57 20 -63 10 -9 12 2 9 53 -2 36 -8 74 -13 85 -6 15 -5 17 3 10 7 -6 20
-35 30 -65 30 -88 58 -70 32 20 l-10 35 20 -25 c11 -14 20 -28 20 -32 0 -12
30 -9 30 2 0 6 -7 24 -15 40 -9 17 -11 30 -5 30 19 0 10 20 -26 60 -20 22 -45
40 -55 40 -10 0 -20 4 -23 9 -3 5 -30 23 -60 39 -67 38 -71 48 -138 325 -48
200 -52 212 -89 252 -27 30 -43 60 -57 110 -11 39 -30 95 -42 125 -29 72 -45
129 -61 215 -7 39 -21 87 -31 107 -23 48 -82 105 -124 120 -39 14 -40 19 -18
53 18 27 12 45 -16 45 -14 0 -21 -11 -27 -42 l-9 -43 -45 1 c-60 0 -138 39
-167 84 -21 31 -23 45 -20 115 2 66 7 84 25 102 25 25 40 87 25 106 -5 6 -12
40 -15 74 -8 94 -50 143 -137 156 -19 3 -48 2 -65 -2z"/>
<path d="M3439 4013 c-123 -125 -170 -183 -147 -183 7 0 76 13 154 29 114 23
162 38 255 81 63 30 118 57 122 61 5 4 -8 19 -27 34 l-36 28 -51 -53 c-65 -67
-76 -58 -15 14 l47 54 -38 26 c-29 20 -50 26 -93 26 l-55 0 -116 -117z"/>
<path d="M3824 3883 c-43 -37 -82 -72 -86 -78 -4 -7 -52 -49 -107 -95 -56 -45
-99 -86 -96 -90 12 -20 68 10 149 81 86 75 91 78 152 84 34 4 90 5 123 3 58
-4 61 -3 55 16 -13 41 -33 71 -71 109 l-39 38 -80 -68z"/>
<path d="M2940 3851 c0 -23 5 -30 27 -36 21 -5 32 -2 45 15 23 29 23 36 -4 44
-51 13 -68 8 -68 -23z"/>
<path d="M3767 3744 c-4 -4 6 -23 22 -43 16 -20 46 -61 68 -92 l39 -56 45 41
c24 22 40 38 35 34 -5 -4 -18 -2 -28 3 -11 6 -32 8 -47 4 -24 -5 -33 1 -76 55
-53 66 -49 63 -58 54z"/>
<path d="M2064 3656 c-61 -53 -76 -88 -98 -218 -17 -99 -28 -138 -65 -239 -11
-31 -25 -87 -31 -125 -12 -72 -31 -104 -61 -104 -10 0 -23 -9 -28 -19 -21 -39
-92 -336 -101 -422 -9 -91 -22 -120 -70 -164 -39 -36 -63 -95 -64 -162 -1 -33
-5 -59 -10 -56 -5 3 -6 32 -2 65 5 48 3 63 -11 76 -16 16 -16 16 -11 0 6 -16
-23 -113 -38 -127 -7 -6 1 78 12 119 13 51 -15 5 -35 -55 -10 -33 -19 -50 -20
-38 -1 12 -5 25 -11 28 -6 4 -4 17 5 36 14 26 14 29 -1 29 -20 0 23 57 122
160 59 62 75 86 88 130 26 94 25 103 -9 112 -147 37 -347 79 -352 74 -11 -10
-16 -179 -8 -241 l7 -56 61 5 62 6 -60 -17 c-33 -8 -61 -16 -62 -17 -6 -5 40
-181 61 -234 63 -160 174 -321 299 -438 76 -72 136 -119 142 -112 3 2 37 62
76 133 65 119 200 418 229 510 7 22 18 51 25 65 11 22 10 29 -9 53 l-23 28
-36 -17 c-20 -10 -40 -14 -44 -9 -5 4 -2 10 5 12 6 3 12 11 12 19 0 15 -33 14
-95 -2 -11 -2 -6 3 10 12 17 9 31 17 32 18 1 1 -4 24 -11 51 l-12 50 -90 6
c-63 4 -76 6 -44 9 25 2 52 4 60 6 8 1 26 2 40 3 24 1 25 4 25 64 0 65 -6 77
-42 77 -13 0 -23 3 -23 6 0 3 15 33 34 67 19 34 44 103 57 152 12 50 34 108
49 130 41 60 88 157 95 197 4 20 13 39 20 41 21 9 28 57 11 82 -38 58 -26 139
30 190 24 22 26 29 18 57 -15 51 -48 49 -110 -6z m-637 -1182 c-3 -3 -12 -4
-19 -1 -8 3 -5 6 6 6 11 1 17 -2 13 -5z m232 -151 c0 -5 -4 -17 -9 -28 -8 -17
-8 -16 -7 8 1 15 5 27 9 27 4 0 8 -3 7 -7z"/>
<path d="M3630 3625 c-11 -13 -8 -15 13 -15 19 0 25 4 21 15 -4 8 -10 15 -14
15 -4 0 -13 -7 -20 -15z"/>
<path d="M3498 3590 c-26 -3 -50 -8 -53 -12 -3 -3 23 -29 59 -58 103 -83 249
-279 312 -415 l33 -74 57 19 c76 26 79 20 5 -12 l-59 -26 24 -82 c13 -45 29
-123 36 -173 6 -51 12 -93 13 -94 1 -2 87 28 183 63 l43 16 -5 102 c-7 118 -1
116 16 -5 l13 -87 53 20 c51 19 52 20 52 61 -1 58 -47 252 -69 285 -5 8 -32
15 -66 17 l-58 4 -28 67 c-31 73 -28 84 22 84 38 0 40 8 13 55 -13 24 -24 51
-24 59 0 9 -6 16 -13 16 -17 0 -95 -49 -170 -107 -32 -25 -61 -42 -64 -39 -4
3 -4 7 -2 9 2 2 45 34 94 72 50 38 92 71 95 73 3 2 -12 19 -34 36 l-38 33 36
22 c42 26 40 22 23 54 l-13 24 -39 -34 c-92 -78 -207 -165 -212 -159 -4 3 -4
7 -2 9 2 1 30 25 62 51 43 36 55 51 45 57 -28 18 -195 67 -243 71 -27 2 -71 1
-97 -2z"/>
<path d="M3390 3563 c-43 -17 -95 -60 -144 -119 l-55 -67 21 -40 c28 -57 56
-139 51 -154 -6 -18 12 -16 27 2 18 21 25 19 41 -12 23 -47 23 -49 -1 -20
l-22 28 -24 -22 c-13 -12 -24 -26 -24 -30 0 -5 20 -40 46 -79 41 -63 47 -69
66 -59 32 17 50 -7 21 -29 -22 -16 -18 -17 80 -11 75 5 133 16 221 42 65 20
120 38 123 41 3 3 -15 49 -40 101 -45 93 -103 180 -171 259 l-34 39 -53 -11
c-30 -6 -65 -15 -78 -18 -23 -7 -22 -4 12 41 20 26 37 51 37 55 0 10 -68 70
-78 69 -4 0 -14 -3 -22 -6z"/>
<path d="M1325 3331 c-6 -5 -63 -27 -128 -49 -133 -44 -135 -46 -177 -162
l-23 -66 33 -62 c18 -34 50 -78 71 -97 35 -31 127 -85 146 -85 5 0 18 38 30
84 30 118 75 226 128 307 25 38 45 74 45 79 0 9 -91 60 -108 60 -4 0 -12 -4
-17 -9z"/>
<path d="M1447 3232 c-65 -99 -148 -300 -162 -393 l-7 -45 99 -28 c54 -16 139
-39 190 -51 78 -19 93 -20 98 -8 11 31 3 41 -55 62 -33 12 -59 25 -57 29 2 4
9 20 17 35 13 27 12 29 -16 52 -40 33 -20 31 55 -5 34 -17 67 -31 73 -33 5 -1
18 22 28 50 l19 53 -50 27 c-27 16 -49 31 -49 36 0 11 7 9 60 -18 l50 -25 20
41 c12 22 20 42 18 43 -2 1 -24 18 -50 36 -50 35 -56 44 -37 56 7 4 -3 16 -27
31 -52 32 -171 93 -182 93 -5 0 -21 -17 -35 -38z m-24 -242 c-3 -12 -8 -19
-11 -16 -5 6 5 36 12 36 2 0 2 -9 -1 -20z"/>
<path d="M995 3219 c-118 -28 -288 -85 -342 -115 -34 -19 -86 -56 -115 -83
l-52 -48 17 -44 c20 -50 77 -153 82 -147 2 2 9 35 15 73 17 112 21 125 36 125
10 0 13 -6 10 -17 -5 -18 -19 -103 -30 -180 -6 -43 -6 -43 41 -67 53 -26 123
-48 123 -38 -1 4 -9 32 -20 62 -37 106 -21 108 29 4 44 -91 52 -102 79 -106
l30 -4 6 80 c4 45 11 98 15 118 l9 37 -131 52 -131 53 25 17 c104 76 238 169
243 169 3 0 6 -19 6 -42 0 -24 3 -61 7 -83 l6 -40 13 35 c7 19 13 57 13 84 1
43 3 47 14 32 11 -15 15 -12 34 33 12 28 18 51 15 50 -4 -1 -25 -5 -47 -10z
m-15 -38 c0 -5 -7 -12 -16 -15 -14 -5 -15 -4 -4 9 14 17 20 19 20 6z"/>
<path d="M3762 2970 c-57 -27 -74 -30 -160 -30 -100 0 -210 -14 -223 -27 -4
-5 1 -39 12 -78 10 -38 24 -89 29 -111 l10 -42 138 -6 c75 -3 181 -9 235 -12
l97 -6 0 44 c0 79 -50 298 -68 298 -4 0 -36 -14 -70 -30z"/>
<path d="M931 2772 c-6 -49 -11 -130 -11 -182 0 -82 3 -98 26 -137 22 -38 29
-44 52 -39 15 3 47 8 72 11 25 3 74 11 110 17 l65 10 0 159 0 160 -66 19 c-36
11 -74 20 -83 20 -9 0 -44 11 -78 25 -34 14 -65 25 -68 25 -4 0 -12 -40 -19
-88z"/>
<path d="M3250 2695 c0 -8 4 -15 10 -15 5 0 7 7 4 15 -4 8 -8 15 -10 15 -2 0
-4 -7 -4 -15z"/>
<path d="M3247 2623 c-3 -10 -8 -35 -12 -55 -5 -35 -4 -38 17 -38 13 0 41 -3
62 -7 38 -6 39 -6 32 21 -12 47 -49 96 -73 96 -12 0 -24 -8 -26 -17z"/>
<path d="M3460 2587 c0 -7 8 -26 19 -42 l18 -31 159 -12 c87 -7 175 -15 195
-18 l37 -6 7 52 c4 28 5 53 4 54 -2 2 -102 6 -221 9 -165 4 -218 3 -218 -6z"/>
<path d="M3927 2593 c-10 -9 -9 -111 1 -116 4 -3 33 -8 64 -11 50 -7 57 -5 52
8 -5 13 2 16 35 17 23 1 47 2 54 3 7 1 13 21 15 54 l3 52 -109 0 c-60 0 -112
-3 -115 -7z"/>
<path d="M869 2515 c17 -33 31 -51 31 -40 0 6 -10 21 -21 35 -13 17 -17 18
-10 5z"/>
<path d="M4132 2450 c0 -14 2 -19 5 -12 2 6 2 18 0 25 -3 6 -5 1 -5 -13z"/>
<path d="M848 2447 c-16 -6 -30 -19 -34 -29 -3 -10 -13 -18 -21 -18 -9 0 -14
-3 -10 -6 3 -3 33 -3 66 1 59 7 61 8 61 36 0 32 -14 35 -62 16z"/>
<path d="M1073 2401 c-68 -15 -125 -30 -129 -34 -5 -5 4 -107 10 -107 1 0 69
14 150 31 132 27 171 30 154 14 -4 -4 -281 -65 -295 -65 -1 0 0 -15 2 -32 l5
-33 -12 28 c-13 30 -23 32 -95 18 -153 -30 -168 -21 -23 14 50 11 91 23 92 26
1 2 -2 26 -6 52 -7 48 -8 48 -39 42 -96 -20 -261 -71 -324 -100 l-72 -33 5
-39 c3 -21 19 -84 36 -140 l31 -102 46 -15 c77 -25 181 -46 259 -53 l74 -6
-12 22 c-12 24 -6 41 9 25 10 -10 81 -133 81 -140 0 -14 -18 1 -38 32 l-24 36
-24 -23 c-13 -12 -24 -30 -24 -38 0 -9 -10 -44 -22 -79 -16 -46 -19 -68 -12
-80 15 -24 73 -51 114 -53 48 -2 124 -24 161 -46 22 -13 29 -23 25 -39 -8 -30
65 -105 139 -142 33 -17 85 -48 115 -69 l55 -39 56 76 c31 43 94 132 139 200
l83 124 -24 18 c-97 77 -153 127 -191 172 -149 172 -249 362 -282 536 -11 62
-13 65 -42 67 -16 0 -84 -11 -151 -26z m-47 -348 c16 -38 39 -86 51 -108 25
-44 28 -55 14 -55 -10 0 -73 126 -97 193 -23 64 2 40 32 -30z m512 -448 c-3
-4 -45 32 -92 80 -47 47 -86 91 -86 98 0 6 41 -30 92 -80 51 -51 89 -95 86
-98z m-331 123 c17 -24 59 -73 93 -110 34 -38 56 -68 48 -68 -13 0 -69 61
-145 158 -45 57 -48 62 -35 62 5 0 22 -19 39 -42z"/>
<path d="M1446 2303 c-6 -14 -5 -15 5 -6 7 7 10 15 7 18 -3 3 -9 -2 -12 -12z"/>
<path d="M2044 2128 c-21 -51 -39 -103 -40 -116 -1 -23 0 -23 16 -5 29 31 95
127 82 119 -15 -9 -16 6 -1 21 12 12 3 73 -10 73 -5 0 -26 -42 -47 -92z"/>
<path d="M2096 2054 c-33 -43 -115 -155 -184 -248 l-124 -169 29 -23 c30 -25
21 -33 -11 -9 -11 8 -23 15 -27 15 -11 0 -256 -388 -248 -394 2 -1 24 -14 47
-30 37 -23 43 -31 38 -52 -5 -20 -2 -25 21 -30 16 -4 33 -11 39 -16 7 -5 29
-9 50 -9 51 -1 104 -18 104 -32 -1 -7 -7 -23 -15 -37 -8 -14 -14 -28 -15 -32
0 -6 35 -21 53 -23 4 0 11 -6 16 -13 4 -7 18 78 31 188 12 110 27 203 31 206
5 3 9 2 9 -3 0 -14 -19 -225 -25 -273 -4 -37 0 -30 23 40 68 203 142 382 149
362 3 -6 9 -10 14 -7 10 7 -7 -42 -50 -142 -17 -40 -31 -76 -31 -82 0 -9 87
-27 95 -20 5 5 77 322 105 458 l21 105 -25 100 c-13 56 -28 123 -31 150 -6 44
-8 47 -20 29 -8 -11 -35 -68 -61 -126 -26 -59 -49 -105 -51 -104 -3 4 32 95
76 195 48 109 36 119 -33 26z m-5 -421 c-12 -20 -14 -14 -5 12 4 9 9 14 11 11
3 -2 0 -13 -6 -23z m-126 -100 c-9 -37 -18 -20 -9 19 4 18 9 27 11 20 3 -7 2
-24 -2 -39z"/>
<path d="M2267 1620 c-14 -33 -92 -370 -101 -435 -5 -30 -4 -36 4 -23 7 11 18
15 33 12 12 -3 37 -7 56 -9 18 -1 37 -9 42 -16 5 -9 9 13 9 58 0 40 5 104 12
143 10 56 9 79 0 113 -7 23 -21 71 -31 107 -11 38 -21 59 -24 50z"/>
<path d="M2321 768 c-65 -77 -65 -81 1 -91 l37 -6 6 47 c4 26 11 62 16 81 4
19 7 36 5 38 -2 2 -31 -29 -65 -69z"/>
<path d="M2230 639 c0 -11 9 -32 20 -46 11 -14 17 -29 15 -34 -6 -9 63 -24 72
-15 4 3 8 31 11 61 l4 55 -61 0 c-55 0 -61 -2 -61 -21z"/>
</g>
</svg>
